<?xml version="1.0" standalone="no"?>
<!DOCTYPE svg PUBLIC "-//W3C//DTD SVG 20010904//EN"
 "http://www.w3.org/TR/2001/REC-SVG-20010904/DTD/svg10.dtd">
<svg version="1.0" xmlns="http://www.w3.org/2000/svg"
 width="1024.000000pt" height="1024.000000pt" viewBox="0 0 1024.000000 1024.000000"
 preserveAspectRatio="xMidYMid meet">
<metadata>
Created by potrace 1.11, written by Peter Selinger 2001-2013
</metadata>
<g transform="translate(0.000000,1024.000000) scale(0.100000,-0.100000)"
fill="#000000" stroke="none">
<path d="M5017 5222 l-5017 -5017 0 -103 0 -102 5120 0 5120 0 0 5120 0 5120
-103 0 -102 0 -5018 -5018z m1599 -363 c215 -38 416 -153 619 -354 166 -165
268 -340 302 -519 28 -148 4 -336 -59 -459 -11 -22 -17 -41 -15 -44 3 -2 19 3
35 11 118 61 334 77 492 37 112 -29 284 -115 393 -197 121 -91 297 -269 395
-399 105 -139 193 -314 227 -450 80 -317 -20 -602 -310 -884 -161 -157 -330
-257 -502 -297 -106 -25 -302 -15 -413 20 -173 56 -333 160 -503 325 l-98 96
190 189 190 189 86 -81 c107 -102 191 -162 292 -210 73 -34 84 -37 173 -37 89
0 99 2 159 35 69 37 167 129 209 194 33 53 62 146 62 201 0 143 -113 328 -335
549 -254 253 -483 350 -686 290 -77 -23 -116 -45 -204 -115 l-78 -61 -183 183
c-101 101 -184 188 -184 193 0 4 25 36 57 69 196 212 220 404 75 615 -131 193
-352 374 -510 417 -132 37 -254 -6 -383 -135 -167 -167 -189 -325 -72 -529 37
-65 142 -197 202 -256 28 -27 51 -54 51 -60 0 -5 -83 -93 -185 -195 l-185
-185 -71 70 c-194 190 -316 388 -365 591 -26 106 -24 279 4 379 29 103 98 241
164 330 71 95 229 251 319 314 122 87 266 151 379 171 68 12 199 11 266 -1z"/>
<path d="M6217 9672 l-287 -287 743 -743 742 -742 290 290 290 290 -75 75 -75
75 -185 -185 -185 -185 -273 273 -272 272 150 150 150 150 -72 72 -73 73 -150
-150 -150 -150 -248 248 -247 247 180 180 c99 99 180 184 180 190 0 10 -131
145 -140 145 -3 0 -134 -129 -293 -288z"/>
<path d="M5595 8955 c-134 -51 -199 -102 -440 -344 l-190 -191 743 -743 743
-742 213 215 c159 160 223 233 254 285 111 191 96 361 -51 580 -44 65 -616
648 -762 777 -62 55 -119 94 -183 126 -90 44 -98 46 -190 49 -68 2 -109 -2
-137 -12z m193 -281 c52 -30 783 -750 862 -850 132 -164 118 -273 -57 -446
l-88 -88 -593 593 -593 593 89 86 c49 47 114 100 143 118 50 29 59 31 122 26
50 -4 81 -12 115 -32z"/>
<path d="M4080 7535 l-285 -285 743 -742 742 -743 290 290 290 290 -75 75 -75
75 -188 -188 -187 -187 -273 273 -272 272 150 150 150 150 -72 72 -73 73 -145
-145 c-80 -80 -150 -145 -155 -145 -6 0 -119 109 -253 243 l-242 242 185 185
185 185 -72 72 c-40 40 -75 73 -78 73 -3 0 -133 -128 -290 -285z"/>
<path d="M3165 6620 l-100 -100 743 -743 742 -742 292 292 293 293 -75 75 -75
75 -190 -190 -190 -190 -665 665 c-366 366 -667 665 -670 665 -3 0 -50 -45
-105 -100z"/>
<path d="M2680 6090 c-77 -28 -153 -81 -241 -169 -245 -245 -253 -474 -24
-757 35 -44 220 -235 412 -425 274 -272 367 -358 436 -404 255 -167 469 -151
671 52 33 32 69 83 88 121 29 59 33 75 32 147 -1 48 -8 98 -18 124 -9 24 -15
46 -13 48 2 2 44 -28 92 -67 l89 -71 65 66 66 65 -368 368 -367 367 -187 -187
-188 -188 73 -72 72 -73 96 95 96 95 89 -95 c261 -276 294 -405 144 -555 -122
-122 -233 -116 -405 22 -41 33 -240 226 -441 429 -335 338 -369 375 -402 443
-25 49 -37 87 -37 115 0 120 155 275 275 276 57 0 138 -49 246 -149 l91 -84
96 97 97 97 -75 70 c-98 92 -210 168 -288 196 -81 30 -193 31 -272 3z"/>
<path d="M977 5412 l-98 -98 274 -77 c151 -42 281 -77 289 -77 14 0 105 87 97
93 -4 4 -460 257 -463 257 -1 0 -45 -44 -99 -98z"/>
<path d="M1617 5072 l-287 -287 738 -738 c405 -405 742 -737 747 -737 6 0 138
128 295 285 l285 285 -75 75 -75 75 -185 -185 -185 -185 -273 273 -272 272
150 150 150 150 -72 72 -73 73 -150 -150 -150 -150 -248 248 -247 247 185 185
185 185 -72 72 c-40 40 -75 73 -78 73 -3 0 -134 -129 -293 -288z"/>
<path d="M983 4346 c-118 -44 -171 -85 -391 -301 l-213 -209 743 -743 743
-743 102 102 103 103 -350 350 -350 350 80 80 80 80 33 -18 c19 -10 220 -123
448 -252 l414 -233 98 96 c53 53 97 99 97 102 0 4 -208 122 -462 263 -255 142
-469 261 -476 265 -9 7 -9 18 4 56 12 34 15 70 12 127 -4 66 -11 91 -41 152
-58 114 -204 268 -314 333 -116 68 -246 82 -360 40z m190 -263 c77 -42 197
-165 235 -242 62 -125 37 -206 -116 -370 l-67 -72 -248 249 -248 249 78 73
c165 154 244 178 366 113z"/>
</g>
</svg>
